# xmcd CD database file
# Copyright (C) 1995-1998 Ti Kan
#
# Track frame offsets:
#	150
#	18898
#	40410
#	58914
#	74240
#	94268
#	114557
#	138468
#	161435
#	180306
#	205175
#	220975
#	243323
#	261605
#	282463
#
# Disc length: 4087 seconds
#
# Revision: 1
# Processed by: cddbd v1.4b42PL1 Copyright (c) Steve Scherf et al.
# Submitted via: CDex 1.40Beta3
#
DISCID=ec0ff50f
DTITLE=Cam Ly 2 - Tinh Cuoi Mua Dong
DYEAR=1900
DGENRE=Blues
TTITLE0=Tinh Cuoi Mua Dong
TTITLE1=and Dan Truong - Dem Co Don
TTITLE2=Buon Mat Anh Yeu
TTITLE3=Ngay Do Xa Nhau
TTITLE4=Xin Duoc La Tinh Cuoi
TTITLE5=Tinh Khong Doi Thay
TTITLE6=Co Be Kinh Can
TTITLE7=Khi Tinh Yeu Den
TTITLE8=Dau Vet Tinh Sau
TTITLE9=999 Doa Hong
TTITLE10=Khi Co Em Trong Doi
TTITLE11=Cuoc Tinh Don Coi
TTITLE12=Mua Tren Pho
TTITLE13=Co Phai Em Da Yeu
TTITLE14=Nguoi Ve Cuoi Pho
EXTD=ID3G:   0
EXTT0=
EXTT1=
EXTT2=
EXTT3=
EXTT4=
EXTT5=
EXTT6=
EXTT7=
EXTT8=
EXTT9=
EXTT10=
EXTT11=
EXTT12=
EXTT13=
EXTT14=
PLAYORDER=
